# File created by Blade
# Date/Time:  Thu Jan 22 19:18:16 2015
# Frame Rate: 120.000 fps
#------------------------------------------------------
:FULLY-SPECIFIED
:DEGREES
885
root 0.766641 31.704881 -8.840103 83.579683 14.389155 -2.524499
RightUpLeg -85.711243 -12.483729 2.920699
RightLeg -2.797307 -0.000000 0.000000
RightFoot -1.843490 -7.153903 17.178440
RightToeBase 7.264310 -0.000000 -0.000000
LeftUpLeg -95.933354 19.845808 15.529696
LeftLeg 3.189182 -0.000000 -0.000000
LeftFoot 5.411783 2.735725 -25.965111
LeftToeBase 8.905482 -0.000000 -0.000000
Spine 39.709975 11.493305 -14.465317
RightShoulder 5.366664 17.561611 -42.575665
RightArm 58.095346 26.576880 52.327729
RightForeArm -29.450054 -0.000000 58.873526
RightHand 14.121466 -0.000000 -12.464771
RightHandThumb1 -24.326973 -0.000000 -32.862282
LeftShoulder 5.195075 -19.992002 40.483360
LeftArm 29.337655 -16.833022 -41.375259
LeftForeArm 10.140982 -0.000000 44.896092
LeftHand -0.634133 -0.000000 -3.782767
LeftHandThumb1 -26.253704 0.000000 33.147579
Head -43.682131 3.878446 -4.669873
886
root 0.753764 31.704028 -8.813857 83.732453 14.752002 -2.610340
RightUpLeg -85.758857 -12.399347 3.218147
RightLeg -2.820344 -0.000000 0.000000
RightFoot -1.953305 -7.223721 17.184996
RightToeBase 7.252070 -0.000000 -0.000000
LeftUpLeg -96.244129 19.932429 15.493671
LeftLeg 3.225181 -0.000000 -0.000000
LeftFoot 5.550153 2.450990 -25.726381
LeftToeBase 8.506333 -0.000000 -0.000000
Spine 39.695856 11.675575 -14.526024
RightShoulder 5.167686 17.798502 -42.787255
RightArm 58.395249 26.460721 51.901505
RightForeArm -29.539856 -0.000000 58.605443
RightHand 14.141774 0.000000 -12.077278
RightHandThumb1 -24.326973 -0.000000 -32.862282
LeftShoulder 5.105169 -19.787836 40.341968
LeftArm 29.714675 -16.776129 -41.506453
LeftForeArm 9.281583 -0.000000 45.025338
LeftHand -0.570602 -0.000000 -4.242453
LeftHandThumb1 -26.253704 0.000000 33.147579
Head -43.919047 3.829743 -4.644968
887
root 0.747528 31.705858 -8.787296 83.879582 15.074841 -2.681139
RightUpLeg -85.806486 -12.345681 3.541065
RightLeg -2.860998 -0.000000 0.000000
RightFoot -2.002607 -7.207460 17.234373
RightToeBase 7.241907 -0.000000 -0.000000
LeftUpLeg -96.387368 20.027913 15.713920
LeftLeg 3.166843 -0.000000 -0.000000
LeftFoot 5.576505 2.435242 -25.734133
LeftToeBase 8.354521 -0.000000 -0.000000
Spine 39.695270 11.770293 -14.661768
RightShoulder 4.983092 18.022252 -43.041014
RightArm 58.898208 26.384676 51.724228
RightForeArm -29.865869 -0.000000 58.235824
RightHand 14.312666 -0.000000 -11.551980
RightHandThumb1 -24.326973 -0.000000 -32.862282
LeftShoulder 5.006363 -19.372556 40.192054
LeftArm 30.165465 -17.004404 -41.672029
LeftForeArm 8.011433 -0.000000 45.256727
LeftHand -0.651965 -0.000000 -5.067245
LeftHandThumb1 -26.253704 0.000000 33.147579
Head -44.133259 3.854347 -4.657629
888
root 0.741511 31.705696 -8.764527 84.037891 15.382541 -2.759270
RightUpLeg -85.880119 -12.277328 3.825650
RightLeg -2.877630 -0.000000 0.000000
RightFoot -2.083747 -7.232065 17.267091
RightToeBase 7.245122 -0.000000 -0.000000
LeftUpLeg -96.591882 20.139260 15.904584
LeftLeg 3.171747 -0.000000 -0.000000
LeftFoot 5.625425 2.367891 -25.786415
LeftToeBase 8.509238 -0.000000 -0.000000
Spine 39.668498 11.890902 -14.818833
RightShoulder 4.814479 18.234272 -43.172853
RightArm 59.354590 26.322019 51.346730
RightForeArm -30.058766 -0.000000 57.869946
RightHand 14.451701 -0.000000 -10.970234
RightHandThumb1 -24.326973 -0.000000 -32.862282
LeftShoulder 4.956192 -19.167224 40.100081
LeftArm 30.431971 -17.113435 -41.908742
LeftForeArm 6.929965 -0.000000 45.537500
LeftHand -0.656275 -0.000000 -5.714562
LeftHandThumb1 -26.253704 0.000000 33.147579
Head -44.336605 3.789252 -4.607126
889
root 0.740428 31.707991 -8.746131 84.262881 15.706061 -2.786249
RightUpLeg -86.014641 -12.266824 4.105683
RightLeg -2.881374 -0.000000 0.000000
RightFoot -2.158602 -7.259795 17.318077
RightToeBase 7.218883 -0.000000 -0.000000
LeftUpLeg -97.025604 20.148528 15.774500
LeftLeg 3.298954 -0.000000 -0.000000
LeftFoot 5.687795 2.154380 -25.504631
LeftToeBase 8.468283 -0.000000 -0.000000
Spine 39.602929 11.882884 -14.953554
RightShoulder 4.625800 18.456979 -43.367783
RightArm 59.874674 26.233470 51.018668
RightForeArm -30.090996 -0.000000 57.480571
RightHand 14.522085 -0.000000 -10.808584
RightHandThumb1 -24.326973 -0.000000 -32.862282
LeftShoulder 4.867578 -18.846607 39.934946
LeftArm 30.795294 -17.299439 -42.146714
LeftForeArm 5.920836 -0.000000 45.857728
LeftHand -0.864001 0.000000 -6.325562
LeftHandThumb1 -26.253704 0.000000 33.147579
Head -44.551515 3.809594 -4.714017
890
root 0.732086 31.709183 -8.719680 84.414592 16.058902 -2.855386
RightUpLeg -86.058144 -12.199836 4.462052
RightLeg -2.935116 -0.000000 0.000000
RightFoot -2.221347 -7.285275 17.302379
RightToeBase 7.219617 -0.000000 -0.000000
LeftUpLeg -97.289343 20.215310 15.829923
LeftLeg 3.326869 -0.000000 -0.000000
LeftFoot 5.748854 2.037749 -25.451201
LeftToeBase 8.454871 -0.000000 -0.000000
Spine 39.622863 11.889786 -15.074926
RightShoulder 4.443007 18.751032 -43.575095
RightArm 60.420697 26.147487 50.763420
RightForeArm -30.222554 -0.000000 57.033776
RightHand 14.719467 -0.000000 -10.699570
RightHandThumb1 -24.326973 -0.000000 -32.862282
LeftShoulder 4.737521 -18.499344 39.741922
LeftArm 31.179488 -17.495764 -42.301105
LeftForeArm 4.735771 -0.000000 46.130910
LeftHand -0.685189 -0.000000 -6.654428
LeftHandThumb1 -26.253704 0.000000 33.147579
Head -44.798065 3.863119 -4.841555
891
root 0.719999 31.710179 -8.691022 84.564820 16.436567 -2.955662
RightUpLeg -86.083192 -12.094864 4.832686
RightLeg -3.011287 -0.000000 0.000000
RightFoot -2.252130 -7.283910 17.459973
RightToeBase 6.989821 -0.000000 -0.000000
LeftUpLeg -97.577120 20.325469 15.864300
LeftLeg 3.359413 -0.000000 -0.000000
LeftFoot 5.862472 1.833654 -25.336185
LeftToeBase 8.375698 -0.000000 -0.000000
Spine 39.620822 11.945648 -15.179000
RightShoulder 4.270908 19.015261 -43.722385
RightArm 60.887826 26.067226 50.377116
RightForeArm -30.428905 -0.000000 56.643492
RightHand 14.686551 -0.000000 -10.661249
RightHandThumb1 -24.326973 -0.000000 -32.862282
LeftShoulder 4.690787 -18.264366 39.594490
LeftArm 31.455776 -17.750319 -42.525055
LeftForeArm 3.581747 -0.000000 46.437645
LeftHand -0.287605 -0.000000 -7.503115
LeftHandThumb1 -26.253704 0.000000 33.147579
Head -45.034266 3.917011 -4.899698
892
root 0.710739 31.710815 -8.662898 84.706166 16.797948 -3.050719
RightUpLeg -86.115710 -12.004669 5.253656
RightLeg -3.105905 -0.000000 0.000000
RightFoot -2.264081 -7.254137 17.471218
RightToeBase 6.930104 -0.000000 -0.000000
LeftUpLeg -97.849667 20.420044 15.867788
LeftLeg 3.372372 -0.000000 -0.000000
LeftFoot 5.955953 1.628381 -25.221577
LeftToeBase 8.395998 -0.000000 -0.000000
Spine 39.602003 12.029029 -15.331562
RightShoulder 4.163273 19.234791 -43.756489
RightArm 61.347118 26.058420 49.930691
RightForeArm -30.415939 -0.000000 56.220735
RightHand 14.660624 -0.000000 -10.633502
RightHandThumb1 -24.326973 -0.000000 -32.862282
LeftShoulder 4.648838 -17.980144 39.517567
LeftArm 31.840056 -18.074235 -42.852042
LeftForeArm 2.392817 -0.000000 46.709229
LeftHand -0.003674 -0.000000 -8.091722
LeftHandThumb1 -26.253704 0.000000 33.147579
Head -45.187475 3.932937 -4.786142
893
root 0.702982 31.712465 -8.632035 84.848885 17.158091 -3.137860
RightUpLeg -86.139704 -11.922913 5.584069
RightLeg -3.161743 -0.000000 0.000000
RightFoot -2.332708 -7.276081 17.434426
RightToeBase 7.108763 -0.000000 -0.000000
LeftUpLeg -98.116241 20.484864 15.840391
LeftLeg 3.379737 -0.000000 -0.000000
LeftFoot 6.007020 1.452369 -25.003261
LeftToeBase 8.434433 -0.000000 -0.000000
Spine 39.636247 12.064905 -15.441490
RightShoulder 3.930514 19.457837 -44.023047
RightArm 61.833696 26.023980 49.787656
RightForeArm -30.426529 -0.000000 55.898691
RightHand 14.742440 0.000000 -10.596287
RightHandThumb1 -24.326973 -0.000000 -32.862282
LeftShoulder 4.589845 -17.683555 39.318667
LeftArm 32.225157 -18.436069 -43.055381
LeftForeArm 0.946777 -0.000000 47.024460
LeftHand 0.259124 -0.000000 -8.868799
LeftHandThumb1 -26.253704 0.000000 33.147579
Head -45.447586 3.938599 -4.853327
894
root 0.689650 31.710827 -8.601893 84.959333 17.554656 -3.261812
RightUpLeg -86.134916 -11.788392 6.048065
RightLeg -3.254189 -0.000000 0.000000
RightFoot -2.378407 -7.296911 17.320900
RightToeBase 7.138714 -0.000000 -0.000000
LeftUpLeg -98.281318 20.635956 16.134674
LeftLeg 3.399925 -0.000000 -0.000000
LeftFoot 6.015918 1.393092 -25.056450
LeftToeBase 8.317651 -0.000000 -0.000000
Spine 39.659145 12.157463 -15.499655
RightShoulder 3.714881 19.650155 -44.176791
RightArm 62.346125 25.988039 49.521949
RightForeArm -30.333550 0.000000 55.500618
RightHand 14.660597 -0.000000 -10.424053
RightHandThumb1 -24.326973 -0.000000 -32.862282
LeftShoulder 4.630728 -17.537552 39.196940
LeftArm 32.420409 -18.800803 -43.388858
LeftForeArm -0.347836 -0.000000 47.396944
LeftHand 0.634368 -0.000000 -9.919735
LeftHandThumb1 -26.253704 0.000000 33.147579
Head -45.638421 3.922407 -4.896299
895
root 0.675256 31.704840 -8.567643 84.989205 17.984528 -3.439820
RightUpLeg -86.051697 -11.617393 6.519990
RightLeg -3.337983 -0.000000 0.000000
RightFoot -2.447396 -7.273076 17.317040
RightToeBase 7.164845 -0.000000 -0.000000
LeftUpLeg -98.275355 20.863258 16.765336
LeftLeg 3.430299 -0.000000 -0.000000
LeftFoot 5.844095 1.524546 -25.265623
LeftToeBase 8.831761 -0.000000 -0.000000
Spine 39.742024 12.301643 -15.516414
RightShoulder 3.504358 19.855135 -44.336872
RightArm 62.902130 25.976512 49.421144
RightForeArm -30.433394 0.000000 55.073519
RightHand 14.865605 0.000000 -10.239483
RightHandThumb1 -24.326973 -0.000000 -32.862282
LeftShoulder 4.620105 -17.444930 39.090922
LeftArm 32.637120 -19.105297 -43.776232
LeftForeArm -1.545210 -0.000000 47.790501
LeftHand 0.720235 -0.000000 -10.507712
LeftHandThumb1 -26.253704 0.000000 33.147579
Head -45.843568 3.947182 -4.946278
